<svg xmlns="http://www.w3.org/2000/svg" viewBox="0 0 24 24" fill="none"><g clip-path="url(#a)"><path fill="currentColor" d="M7 22c-.55 0-1.02-.196-1.412-.587A1.927 1.927 0 0 1 5 20c0-.55.196-1.021.588-1.413A1.925 1.925 0 0 1 7 18c.55 0 1.02.196 1.412.587.392.392.588.863.588 1.413s-.196 1.021-.588 1.413A1.925 1.925 0 0 1 7 22Zm10 0c-.55 0-1.02-.196-1.412-.587A1.927 1.927 0 0 1 15 20c0-.55.196-1.021.588-1.413A1.925 1.925 0 0 1 17 18c.55 0 1.021.196 1.413.587.391.392.587.863.587 1.413s-.196 1.021-.587 1.413A1.928 1.928 0 0 1 17 22ZM6.15 6l2.4 5h7l2.75-5H6.15ZM3.625 17 6.6 11.6 3 4H1V2h3.25l.95 2h16.5l-4.975 9H8.1L7 15h12v2H3.625Zm4.925-6h7-7Z"/></g><defs><clipPath id="a"><path fill="#fff" d="M0 0h24v24H0z"/></clipPath></defs></svg>
