<svg xmlns="http://www.w3.org/2000/svg" viewBox="0 0 24 24" fill="none"><path fill="currentColor" d="M12 21c-2.5 0-4.625-.875-6.375-2.625S3 14.5 3 12s.875-4.625 2.625-6.375S9.5 3 12 3a8.48 8.48 0 0 1 1.35.1 5.29 5.29 0 0 0-1.637 1.887A5.308 5.308 0 0 0 11.1 7.5c0 1.5.525 2.775 1.575 3.825C13.725 12.375 15 12.9 16.5 12.9c.917 0 1.758-.204 2.525-.613A5.318 5.318 0 0 0 20.9 10.65 8.509 8.509 0 0 1 21 12c0 2.5-.875 4.625-2.625 6.375S14.5 21 12 21Zm0-2c1.467 0 2.783-.404 3.95-1.212a7.016 7.016 0 0 0 2.55-3.163c-.333.083-.667.15-1 .2-.333.05-.667.075-1 .075-2.05 0-3.796-.72-5.238-2.162C9.821 11.296 9.1 9.55 9.1 7.5c0-.333.025-.667.075-1 .05-.333.117-.667.2-1a7.01 7.01 0 0 0-3.162 2.55C5.404 9.217 5 10.533 5 12c0 1.933.683 3.583 2.05 4.95C8.417 18.317 10.067 19 12 19Z"/></svg>
