<svg xmlns="http://www.w3.org/2000/svg" viewBox="0 0 24 24" fill="none"><path fill="currentColor" d="M20.52 2H3.477C2.66 2 2 2.645 2 3.441v17.114C2 21.352 2.66 22 3.477 22H20.52c.816 0 1.48-.648 1.48-1.441V3.44C22 2.645 21.336 2 20.52 2ZM7.934 19.043h-2.97V9.496h2.97v9.547ZM6.449 8.195a1.72 1.72 0 1 1-.006-3.439 1.72 1.72 0 0 1 .006 3.44Zm12.594 10.848h-2.965v-4.64c0-1.106-.02-2.532-1.543-2.532-1.543 0-1.777 1.207-1.777 2.453v4.719H9.797V9.496h2.844v1.305h.039c.394-.75 1.363-1.543 2.804-1.543 3.004 0 3.559 1.976 3.559 4.547v5.238Z"/></svg>
