<svg xmlns="http://www.w3.org/2000/svg" viewBox="0 0 24 24" fill="none"><g clip-path="url(#a)"><path fill="currentColor" d="M8 11a.968.968 0 0 0 .713-.288A.967.967 0 0 0 9 10a.97.97 0 0 0-.287-.713A.97.97 0 0 0 8 9a.97.97 0 0 0-.713.287A.97.97 0 0 0 7 10c0 .283.096.52.287.712.192.192.43.288.713.288Zm4 0a.968.968 0 0 0 .713-.288A.967.967 0 0 0 13 10a.97.97 0 0 0-.287-.713A.97.97 0 0 0 12 9a.967.967 0 0 0-.712.287A.968.968 0 0 0 11 10c0 .283.096.52.288.712A.965.965 0 0 0 12 11Zm4 0c.283 0 .52-.096.712-.288A.965.965 0 0 0 17 10a.968.968 0 0 0-.288-.713A.967.967 0 0 0 16 9a.967.967 0 0 0-.712.287A.968.968 0 0 0 15 10c0 .283.096.52.288.712A.965.965 0 0 0 16 11ZM2 22V2h20v16H6l-4 4Zm2-4.825L5.175 16H20V4H4v13.175Zm0 0V4v13.175Z"/></g><defs><clipPath id="a"><path fill="#fff" d="M0 0h24v24H0z"/></clipPath></defs></svg>
