<svg xmlns="http://www.w3.org/2000/svg" viewBox="0 0 24 24" fill="none"><g clip-path="url(#a)"><path fill="currentColor" d="M7.5 17.5c-1.533 0-2.833-.533-3.9-1.6C2.533 14.833 2 13.533 2 12s.533-2.833 1.6-3.9c1.067-1.067 2.367-1.6 3.9-1.6H18c1.1 0 2.042.392 2.825 1.175C21.608 8.458 22 9.4 22 10.5s-.392 2.042-1.175 2.825C20.042 14.108 19.1 14.5 18 14.5H8.5c-.7 0-1.292-.242-1.775-.725C6.242 13.292 6 12.7 6 12s.242-1.292.725-1.775C7.208 9.742 7.8 9.5 8.5 9.5H18V11H8.5a.967.967 0 0 0-.712.287A.968.968 0 0 0 7.5 12c0 .283.096.52.288.712A.965.965 0 0 0 8.5 13H18c.7 0 1.292-.242 1.775-.725.483-.483.725-1.075.725-1.775s-.242-1.292-.725-1.775C19.292 8.242 18.7 8 18 8H7.5c-1.1 0-2.042.392-2.825 1.175C3.892 9.958 3.5 10.9 3.5 12s.392 2.042 1.175 2.825C5.458 15.608 6.4 16 7.5 16H18v1.5H7.5Z"/></g><defs><clipPath id="a"><path fill="#fff" d="M0 0h24v24H0z"/></clipPath></defs></svg>
