<svg viewBox="0 0 50 48" fill="none" xmlns="http://www.w3.org/2000/svg">
<path d="M0.992018 47.0302C-1.73495 44.3033 1.21445 40.5576 9.22186 36.5806L14.2576 34.076L16.2194 29.7832C17.3005 27.421 18.9108 23.5685 19.8005 21.2197L21.4198 16.9491L20.3032 13.7906C18.9331 9.90698 18.4437 4.06601 19.3156 1.97074C20.4945 -0.871891 24.3514 -0.582734 25.8773 2.46898C27.0695 4.84896 26.9494 9.15962 25.5347 14.5958L24.3737 19.0532L25.3968 20.7882C25.9574 21.7402 27.5989 24.0045 29.0402 25.8195L31.7538 29.1915L35.1303 28.7511C45.8513 27.3498 49.5258 29.7298 49.5258 33.1418C49.5258 37.4436 41.1047 37.7995 34.0359 32.8349C32.4434 31.7183 31.3535 30.6061 31.3535 30.6061C31.3535 30.6061 26.9227 31.5092 24.7429 32.0964C22.4919 32.7014 21.3709 33.084 18.0701 34.1961C18.0701 34.1961 16.9134 35.8777 16.1572 37.0966C13.3501 41.643 10.076 45.4065 7.74049 46.7767C5.12028 48.3114 2.37552 48.4137 0.992018 47.0347V47.0302ZM5.27154 45.4999C6.80629 44.5524 9.90694 40.8823 12.0556 37.4792L12.9231 36.1001L8.96384 38.0886C2.84707 41.167 0.0533707 44.0675 1.50805 45.8158C2.32659 46.7989 3.30082 46.7188 5.27154 45.4999ZM44.9839 34.3518C46.483 33.302 46.265 31.1845 44.5701 30.3348C43.2534 29.6719 42.1902 29.534 38.7603 29.583C36.6562 29.7253 33.2708 30.1524 32.6969 30.2814C32.6969 30.2814 34.5564 31.567 35.3839 32.0386C36.4827 32.6658 39.1562 33.8314 41.1047 34.4275C43.0265 35.0147 44.1431 34.9524 44.9839 34.3518ZM29.0135 27.7146C28.106 26.7626 26.5624 24.7696 25.5837 23.2927C24.3025 21.6156 23.6619 20.4323 23.6619 20.4323C23.6619 20.4323 22.7277 23.4395 21.9581 25.2501L19.5648 31.1667L18.8708 32.5101C18.8708 32.5101 22.5587 31.3001 24.4359 30.8108C26.4245 30.2903 30.4593 29.4985 30.4593 29.4985L29.0091 27.719L29.0135 27.7146ZM23.8665 7.07769C24.0979 5.13367 24.1957 3.19854 23.5729 2.21986C21.8424 0.329222 19.7516 1.90401 20.1075 6.40151C20.2276 7.91402 20.6013 10.5031 21.104 12.0957L22.0159 14.9961L22.661 12.8119C23.0169 11.6108 23.5551 9.03061 23.8665 7.07769Z" fill="#FF2116"/>
</svg>