<svg xmlns="http://www.w3.org/2000/svg" viewBox="0 0 24 24" fill="none"><path fill="currentColor" d="M8.292 20.25c7.545 0 11.673-6.252 11.673-11.673 0-.176-.004-.355-.012-.531A8.332 8.332 0 0 0 22 5.922a8.09 8.09 0 0 1-2.355.644 4.125 4.125 0 0 0 1.804-2.269 8.247 8.247 0 0 1-2.605.996 4.108 4.108 0 0 0-6.994 3.741A11.654 11.654 0 0 1 3.394 4.75a4.108 4.108 0 0 0 1.27 5.476 4.109 4.109 0 0 1-1.86-.512v.05a4.102 4.102 0 0 0 3.293 4.024 4.078 4.078 0 0 1-1.851.07 4.111 4.111 0 0 0 3.83 2.852 8.23 8.23 0 0 1-6.076 1.698 11.64 11.64 0 0 0 6.292 1.843Z"/></svg>
