<svg xmlns="http://www.w3.org/2000/svg" viewBox="0 0 24 24" fill="none"><path fill="currentColor" d="M21.8 8.035s-.195-1.379-.796-1.984c-.762-.797-1.613-.801-2.004-.848C16.203 5 12.004 5 12.004 5h-.008S7.796 5 5 5.203c-.39.047-1.242.05-2.004.848-.601.605-.793 1.984-.793 1.984S2 9.656 2 11.273v1.516c0 1.617.2 3.238.2 3.238s.195 1.38.792 1.985c.762.797 1.762.77 2.207.855 1.602.152 6.801.2 6.801.2s4.203-.008 7-.208c.39-.047 1.242-.05 2.004-.847.601-.606.797-1.985.797-1.985S22 14.41 22 12.79v-1.516c0-1.617-.2-3.238-.2-3.238ZM9.935 14.63V9.008l5.402 2.82-5.402 2.8Z"/></svg>
