<svg xmlns="http://www.w3.org/2000/svg" xmlns:xlink="http://www.w3.org/1999/xlink" version="1.1" id="Layer_2" x="0px" y="0px" viewBox="0 0 2160 2880" style="enable-background:new 0 0 2160 2880;" xml:space="preserve">
<style xmlns="http://www.w3.org/2000/svg" type="text/css">
	.st0{fill:#767283;}
</style>
<g id="Livello_2_1_">
	<g id="Livello_1-2_1_">
		<path class="st0" d="M1186,1080.5c-36-36-74.2-74.6-108.1-113.1c-31.7,36-65.2,68.8-98.7,102.3c-8.1,8-14.7,17.4-19.5,27.7    c-7.4,16.2-9.8,34.3-6.8,51.9c0,1.8,0,3.6,0,5.4c3.1,9.7,7.7,18.8,13.7,27c1,1.4,1.8,2.8,2.5,4.3c22,27.4,74.2,77.8,103.4,105.9    l173,180.2l51.9,54.8c42.8,44.4,81.4,92.6,115.3,144.1l0,0c4.1,7.1,10.6,12.3,18.4,14.8h3.6c8.4-1.4,15.3-7.4,18-15.5l0,0    c11.2-36.2,16.9-73.8,16.9-111.7c-1-87.7-28.8-172.9-79.6-244.3c-59.9-83.7-127.9-161.2-203.2-231.3L1186,1080.5z"/>
		<path class="st0" d="M1234.3,1660.7c-42.9-52.3-84.3-100.2-149.5-169.7c-55.1,63.1-105.6,111.7-147.4,161.1    c-73.6,79.7-68.7,203.9,11,277.5c79.7,73.6,203.9,68.7,277.5-11c62.5-67.6,69.6-169.6,17.1-245.3    C1240.4,1668.8,1237.5,1664.6,1234.3,1660.7z"/>
		<path class="st0" d="M979.9,1405.5c4.8-5.5,4.8-13.6,0-19.1l-127.2-130.1l-27.4-25.9c-22,25.6-42.6,52.4-61.6,80.4    c-30.8,44.4-53.7,93.8-67.7,145.9l0,0c-15.3,60-13.9,123.1,4.3,182.3l2.5,5.4c3.2,6.4,6.8,12.5,10.8,18.4l0,0    c0,0,14.8,23.8,27.7,24.9h4.7c4.4-1,8-4.1,9.7-8.3c12-25.2,27-48.7,44.7-70.3l46.5-56.6l0,0L979.9,1405.5z"/>
		<path class="st0" d="M1082.6,363.4C487.3,363.2,4.6,845.6,4.4,1440.8s482.2,1078,1077.4,1078.2    c595.3,0.2,1078-482.2,1078.2-1077.4c0-0.1,0-0.2,0-0.4C2160,846.1,1677.7,363.6,1082.6,363.4z M1076.4,2124.8    c-313.2-0.8-566.8-254.7-567.2-567.9c0-266.3,177.7-443.6,334-600.3c104.5-104.5,204.3-204,233.9-316    c29.5,112.1,129.4,211.5,233.9,316c156.8,156.8,334,334,334,600.3C1644.7,1870.6,1390.2,2124.8,1076.4,2124.8z"/>
	</g>
</g>
</svg>