<?xml version="1.0" encoding="utf-8"?>
<!-- Generator: Adobe Illustrator 23.0.6, SVG Export Plug-In . SVG Version: 6.00 Build 0)  -->
<svg version="1.1" id="Layer_1" xmlns="http://www.w3.org/2000/svg" xmlns:xlink="http://www.w3.org/1999/xlink" x="0px" y="0px"
	 viewBox="0 0 78 12" enable-background="new 0 0 78 12" xml:space="preserve">
<title>Group</title>
<path fill="#767283" d="M0.67,11.63h0.26c0.53,0,0.73-0.27,0.93-0.81l0.8-3.83h3.98c0.33,0,0.53-0.07,0.66-0.2
	c0.2-0.2,0.26-0.67,0.26-0.87c0-0.27-0.26-0.47-0.73-0.47H2.93l0.73-3.63h5.31c0.4,0,0.53-0.07,0.66-0.2
	c0.2-0.2,0.33-0.67,0.33-0.94c0-0.34-0.26-0.47-0.73-0.47H3.19C2.53,0.2,2.13,0.54,2,1.21l-1.99,9.55
	C-0.06,11.3,0.21,11.63,0.67,11.63L0.67,11.63z M13.54,11.63h0.27c0.53,0,0.73-0.27,0.86-0.81l2.06-9.82
	c0.13-0.54-0.13-0.87-0.66-0.87h-0.27c-0.53,0-0.73,0.27-0.93,0.81l-2.06,9.82C12.81,11.3,13.07,11.63,13.54,11.63L13.54,11.63z
	 M20.63,11.63h0.2c0.53,0,0.73-0.27,0.86-0.81l1.73-8.2l3.98,8.27c0.27,0.54,0.53,0.74,0.93,0.74h0.13c0.6,0,0.93-0.34,1-0.94
	l2.06-9.61c0.13-0.61-0.13-0.87-0.6-0.87h-0.2c-0.53,0-0.73,0.27-0.86,0.81l-1.66,7.87l-3.84-8c-0.27-0.54-0.46-0.74-0.93-0.74
	h-0.26c-0.6,0-0.93,0.34-1.06,1.01l-1.99,9.55C19.9,11.3,20.17,11.63,20.63,11.63L20.63,11.63z M35.49,11.63l1.92-3.43h4.51
	l0.46,2.49c0.13,0.61,0.47,0.87,0.86,0.87c0.53,0,0.99-0.4,0.99-0.54L42.25,0.67C42.19,0.27,41.92,0,41.13,0
	C40.46,0,40.2,0.2,40,0.54l-5.31,9.01c-0.33,0.54-0.4,0.81-0.4,1.07C34.23,11.77,35.49,11.7,35.49,11.63L35.49,11.63z M38.14,6.79
	l2.72-4.77l0.86,4.77H38.14L38.14,6.79z M51.47,11.7c0.53,0,0.86-0.13,1.13-0.6l5.24-8.87c0.33-0.54,0.46-0.81,0.46-1.08
	c0-1.01-1.33-0.94-1.33-0.94L51.8,9.48l-1.39-8.4c-0.07-0.61-0.47-0.94-0.86-0.94c-0.53,0-1.06,0.4-1.06,0.61l1.92,10.22
	C50.48,11.36,50.74,11.7,51.47,11.7L51.47,11.7z M61.75,11.63h0.26c0.53,0,0.8-0.27,0.86-0.81l2.06-9.82
	c0.13-0.54-0.13-0.87-0.66-0.87H64c-0.53,0-0.73,0.27-0.93,0.81l-1.99,9.82C60.95,11.3,61.22,11.63,61.75,11.63L61.75,11.63z
	 M68.98,11.63L70.9,8.2h4.51l0.46,2.49c0.13,0.6,0.46,0.87,0.86,0.87c0.53,0,0.99-0.4,0.99-0.54L75.74,0.67
	C75.68,0.27,75.41,0,74.61,0c-0.66,0-0.93,0.2-1.13,0.54l-5.31,9.01c-0.33,0.54-0.4,0.81-0.4,1.07
	C67.72,11.77,68.98,11.7,68.98,11.63L68.98,11.63z M71.63,6.79l2.72-4.77l0.86,4.77H71.63z"/>
</svg>
