<?xml version="1.0" encoding="UTF-8"?> <svg xmlns="http://www.w3.org/2000/svg" id="Layer_1" data-name="Layer 1" viewBox="0 0 601.55 141.5"><defs><style>.cls-1,.cls-2{fill:#767283;}.cls-2{fill-rule:evenodd;}</style></defs><path class="cls-1" d="M180.5,228.55c11,19.06,37.07,27.26,57.93,15.22a42.15,42.15,0,1,0-42.15-73C175.43,182.82,169.5,209.49,180.5,228.55Z" transform="translate(-141.51 -141.6)"></path><path class="cls-1" d="M175.39,231.5c-12.55-21.75-5.81-52.09,18-65.81l5.11-19-19-5.12h0a75.83,75.83,0,1,0,75.87,131.32l-13.95-24.07C217.6,262.57,188,253.25,175.39,231.5Z" transform="translate(-141.51 -141.6)"></path><path class="cls-1" d="M322.43,167.05c-7.48,0-12.2,5.2-12.2,13.5v13.34h17v18.58h-17v62.9H286.89v-62.9H276.08V193.89h10.81V182.67c0-17.25,3.47-36.13,30.66-36.13,6.51,0,9.6.66,15.95,2v20a41.17,41.17,0,0,0-11.07-1.46M743.06,275.33V228.12c0-13.56-1-20.09-3.95-25.07-4.12-7.21-12.82-11.67-22.78-11.67-12.19,0-20.6,6-26.26,19.05-2.92-12.7-10.13-19.05-22.15-19.05-12.36,0-19.8,5.84-26,18.54V193.09H619.39v82.24H642.8V237.11c0-5.32.34-9.27,1.2-12.19,2.06-7.38,7.27-12.19,13.62-12.19a10.13,10.13,0,0,1,10,6.7c1.2,3.08,1.72,7.2,1.72,14.76v41.14h23.58V235.74c0-14.94,5-23,14.82-23,5.67,0,9.5,2.51,10.87,8a67.5,67.5,0,0,1,.86,12.25v42.34Zm-132.68-40V193.09H587v42.24c0,16.49-3.14,22-13.61,22-10.82,0-14.48-5.49-14.48-20.61V193.09H535.47v43.27c0,18,2.86,25.92,11.1,32.79,6.53,5.32,15.8,8.07,26.61,8.07,12.71,0,23-4.12,29.53-11.67,5.33-6.18,7.67-14.6,7.67-30.22m-82.65,40V256.9a38.14,38.14,0,0,1-9.61,1c-10.47,0-13.79-4-13.79-15.62v-29.9H526.7V193.72H504.33V166.83l-23.41,13.22v66.44c0,21.12,9.73,30.39,31.36,30.39a68.82,68.82,0,0,0,15.45-1.55m-54.38-59.68a22.51,22.51,0,0,0-10.82-2.41c-13,0-20.54,9.79-20.54,25.59v36.5H418.58V193.09h22.56v18.72c2.92-12.53,11.78-19.92,24.83-19.92a43,43,0,0,1,7.38.86Z" transform="translate(-141.51 -141.6)"></path><path class="cls-2" d="M410.33,234.12c0-25.25-14.77-43.28-40.36-43.28-24.39,0-40.7,18.55-40.7,42.93,0,26.79,16,43.8,41.22,43.8,23.35,0,39.84-18,39.84-43.45ZM386.74,234c0,14.59-6.12,23.63-16.43,23.63-10.64,0-17.45-9.55-17.45-23.81,0-14.08,6.63-23.29,17.11-23.29s16.77,8.87,16.77,23.47Z" transform="translate(-141.51 -141.6)"></path></svg> 