<svg xmlns="http://www.w3.org/2000/svg" width="20" height="20"><path d="M10 0C4.484 0 0 4.484 0 10c0 5.419 4.325 9.836 9.705 9.991.096.01.196.01.295.01.1 0 .199 0 .295-.01C15.675 19.836 20 15.42 20 10c0-5.516-4.484-10-10-10zm-.571 1.25v3.607H6.777c.153-.459.321-.892.509-1.277.621-1.282 1.38-2.064 2.143-2.33zm1.142 0c.763.266 1.522 1.048 2.143 2.33.188.385.356.818.51 1.277H10.57V1.25zm-3.42.366A7.978 7.978 0 006.25 3.08c-.26.537-.486 1.141-.679 1.777H2.786a8.87 8.87 0 014.366-3.241zm5.697 0a8.868 8.868 0 014.366 3.241H14.43a12.313 12.313 0 00-.679-1.777 7.98 7.98 0 00-.902-1.464zM2.098 6h3.179a18.49 18.49 0 00-.402 3.429H1.161A8.822 8.822 0 012.098 6zm4.357 0H9.43v3.43H6.018c.038-1.23.19-2.39.437-3.43zm4.116 0h2.974c.247 1.041.4 2.2.437 3.429h-3.41V6zm4.152 0h3.179c.527 1.041.86 2.2.937 3.429h-3.714A18.493 18.493 0 0014.723 6zM1.161 10.571h3.714a18.57 18.57 0 00.393 3.43h-3.17a8.802 8.802 0 01-.937-3.43zm4.857 0h3.41v3.43H6.456c-.247-1.041-.4-2.2-.437-3.43zm4.553 0h3.411a17.177 17.177 0 01-.437 3.43h-2.973v-3.43zm4.554 0h3.714a8.803 8.803 0 01-.937 3.43h-3.17c.231-1.06.36-2.217.393-3.43zm-12.34 4.572h2.786c.194.636.418 1.23.679 1.768.267.55.57 1.051.91 1.482a8.871 8.871 0 01-4.374-3.25zm3.992 0h2.652v3.616c-.763-.268-1.522-1.066-2.143-2.348a10.52 10.52 0 01-.51-1.268zm3.794 0h2.652a10.43 10.43 0 01-.509 1.268c-.621 1.282-1.38 2.08-2.143 2.348v-3.616zm3.858 0h2.785a8.872 8.872 0 01-4.375 3.25c.34-.43.644-.932.911-1.482.261-.538.486-1.132.679-1.768z" fill="currentColor"/></svg>
