<?xml version="1.0" encoding="UTF-8"?> <svg xmlns="http://www.w3.org/2000/svg" id="layer" viewBox="0 0 534.7 244.9"><defs><style>.cls-1{fill:#767283;}</style></defs><path class="cls-1" d="M460.3,17.5a55.8,55.8,0,0,1,15.6,10.8c5.2,5,11.8,15.7,14.7,19.1.1.1,29.1-24.8,29.1-24.8,12.4,19.7,29.1,17.9,29.1,17.9l-28.6,24c6,1,20.7-2.1,35.4,7.3,0,0-30.5,25.8-30.5,25.7-14.6-10.1-32-7.4-34.8-7.6-.1,0-24.4,20.3-24.4,20.3s-16.4,6.9-32.7-14.6c0,0,27.6-22.8,27.5-22.8-3.4-3.1-11.1-20.2-30.8-29.4Z" transform="translate(-20.9 -17.5)"></path><polygon class="cls-1" points="92.9 78.3 92.9 143.2 32.2 143.2 32.2 78.3 0 78.3 0 241.7 32.2 241.7 32.2 174 92.9 174 92.9 241.7 124.9 241.7 124.9 78.3 92.9 78.3"></polygon><path class="cls-1" d="M233,262.4c35.9,0,62.5-21.5,62.5-56.7V95.8H263.3V203.2c0,15.9-8.4,27.8-30.3,27.8s-30.3-11.9-30.3-27.8V95.8h-32V205.7c0,35.2,26.6,56.7,62.3,56.7" transform="translate(-20.9 -17.5)"></path><path class="cls-1" d="M375.1,262.4c34.8,0,59.3-18.7,59.3-49.2,0-33.4-27.5-42-53.5-50.2-24.7-7.5-31-12.8-31-22.9,0-9.3,7.9-16.3,21.5-16.3,16.6,0,25.4,8.6,31.3,21l27.1-15.6c-11-22.9-31.5-36.6-58.3-36.6-28,0-53.7,17.7-53.7,48.5,0,31,24.3,41.5,49.2,48.8,24.3,7,35.2,11.7,35.2,23.8,0,9.1-6.8,17.3-26.1,17.3-20.3,0-31.7-9.8-37.6-25l-27.6,16c8.9,24.3,30.8,40.4,64.2,40.4" transform="translate(-20.9 -17.5)"></path></svg> 