<svg xmlns="http://www.w3.org/2000/svg" viewBox="0 0 24 24" fill="none"><path fill="currentColor" d="M12.006 3.802c2.673 0 2.99.012 4.041.058.977.043 1.505.208 1.857.344.465.18.801.4 1.149.747.352.352.567.684.746 1.15.137.35.301.882.344 1.856.047 1.055.06 1.372.06 4.041 0 2.674-.013 2.99-.06 4.042-.043.977-.207 1.504-.344 1.856-.18.465-.398.801-.746 1.15a3.077 3.077 0 0 1-1.15.746c-.35.136-.883.3-1.856.344-1.055.047-1.372.058-4.041.058-2.674 0-2.99-.011-4.042-.058-.977-.043-1.504-.207-1.856-.344a3.094 3.094 0 0 1-1.15-.747 3.077 3.077 0 0 1-.746-1.149c-.137-.352-.3-.883-.344-1.857-.047-1.055-.058-1.371-.058-4.041 0-2.673.011-2.99.058-4.041.043-.978.207-1.505.344-1.857.18-.465.399-.801.747-1.149a3.078 3.078 0 0 1 1.149-.747c.352-.136.883-.3 1.856-.344 1.052-.046 1.368-.058 4.042-.058Zm0-1.802c-2.717 0-3.057.012-4.124.059-1.063.047-1.794.219-2.427.465-.66.258-1.22.598-1.774 1.157a4.903 4.903 0 0 0-1.157 1.77c-.246.637-.418 1.364-.465 2.427C2.012 8.95 2 9.29 2 12.006c0 2.716.012 3.056.059 4.123.047 1.063.219 1.794.465 2.428.258.66.598 1.219 1.157 1.774a4.892 4.892 0 0 0 1.77 1.153c.637.246 1.364.418 2.427.465 1.067.047 1.408.059 4.124.059 2.716 0 3.056-.012 4.123-.059 1.064-.047 1.794-.219 2.428-.465a4.892 4.892 0 0 0 1.77-1.153 4.893 4.893 0 0 0 1.153-1.77c.247-.638.419-1.365.465-2.428.047-1.067.059-1.407.059-4.123 0-2.717-.012-3.057-.059-4.124-.046-1.063-.218-1.794-.465-2.427a4.688 4.688 0 0 0-1.145-1.778 4.892 4.892 0 0 0-1.77-1.153c-.638-.247-1.365-.419-2.428-.465-1.07-.051-1.41-.063-4.127-.063Z"/><path fill="currentColor" d="M12.006 6.866a5.141 5.141 0 0 0-5.14 5.14 5.141 5.141 0 1 0 5.14-5.14Zm0 8.474a3.335 3.335 0 1 1 .001-6.67 3.335 3.335 0 0 1-.001 6.67ZM18.549 6.663a1.2 1.2 0 1 1-2.4 0 1.2 1.2 0 0 1 2.4 0Z"/></svg>
