<svg xmlns="http://www.w3.org/2000/svg" width="19" height="20"><path d="M14.895 14.422a8.668 8.668 0 002.193-5.746C17.105 3.908 13.285.017 8.573 0c-2.29-.014-4.431.884-6.05 2.51A8.647 8.647 0 000 8.617a8.652 8.652 0 002.48 6.123 8.442 8.442 0 006.033 2.554h.032a8.44 8.44 0 004.886-1.558l3.898 3.973a.974.974 0 001.382.005.996.996 0 00.005-1.399l-3.82-3.893zm-6.35.894H8.52a6.51 6.51 0 01-4.653-1.971 6.666 6.666 0 01-1.914-4.723A6.665 6.665 0 013.9 3.914a6.51 6.51 0 014.644-1.937h.025c3.635.013 6.582 3.017 6.567 6.695-.013 3.668-2.97 6.644-6.592 6.644z" fill="currentColor"/></svg>
