<svg xmlns="http://www.w3.org/2000/svg" viewBox="0 0 24 24" fill="none"><path fill="currentColor" d="M5 21c-.55 0-1.021-.196-1.413-.587A1.928 1.928 0 0 1 3 19c0-.55.196-1.021.587-1.413A1.928 1.928 0 0 1 5 17c.55 0 1.02.196 1.412.587.392.392.588.863.588 1.413s-.196 1.021-.588 1.413A1.925 1.925 0 0 1 5 21Zm12 0c0-1.933-.367-3.746-1.1-5.438a14.25 14.25 0 0 0-3.012-4.45A14.25 14.25 0 0 0 8.438 8.1C6.746 7.367 4.933 7 3 7V4c2.35 0 4.558.446 6.625 1.338 2.067.891 3.867 2.104 5.4 3.637 1.533 1.533 2.746 3.333 3.638 5.4C19.554 16.442 20 18.65 20 21h-3Zm-6 0c0-2.217-.78-4.104-2.338-5.662C7.104 13.779 5.217 13 3 13v-3c1.533 0 2.967.288 4.3.863a11.093 11.093 0 0 1 3.488 2.349 11.093 11.093 0 0 1 2.349 3.488c.575 1.333.863 2.767.863 4.3h-3Z"/></svg>
