<?xml version="1.0" encoding="UTF-8"?>
<svg viewBox="0 0 300 63" version="1.1" xmlns="http://www.w3.org/2000/svg" xmlns:xlink="http://www.w3.org/1999/xlink">
    <!-- Generator: Sketch 57.1 (83088) - https://sketch.com -->
    <title>traficom_logo_eng</title>
    <desc>Created with Sketch.</desc>
    <g id="New-layout-elements" stroke="none" stroke-width="1" fill="none" fill-rule="evenodd">
        <g id="Styleguide" transform="translate(-499.000000, -271.000000)" fill="#767283" fill-rule="nonzero">
            <g id="Traficom-logo-english" transform="translate(499.000000, 271.000000)">
                <path d="M238.397329,24.6 C236.635459,29.2788449 232.152965,32.3773298 227.146077,32.3773298 C222.139189,32.3773298 217.656695,29.2788449 215.894825,24.6 L207.380634,24.6 C209.361982,33.9119187 217.597974,40.5710622 227.133556,40.5710622 C236.669138,40.5710622 244.90513,33.9119187 246.886477,24.6 L238.397329,24.6 Z M0.230383973,1.24 L0.230383973,8.615 L12.0550918,8.615 L12.0550918,39.7 L19.4373957,39.7 L19.4373957,8.615 L30.8814691,8.615 L30.8814691,1.24 L0.230383973,1.24 Z M160.101836,1.24 L160.101836,39.59 L167.779633,39.59 L167.779633,1.24 L160.101836,1.24 Z M37.6577629,1.24 L37.6577629,7.79 L51.6811352,7.79 C56.9499165,7.79 59.1936561,9.42 59.1936561,13.245 C59.1936561,16.785 57.2904841,18.485 53.0233723,18.745 L37.6527546,18.745 L37.6527546,39.585 L45.6160267,39.585 L45.6160267,26.16 L52.427379,26.16 L59.8497496,39.59 L68.3639399,39.59 L60.9866444,26.16 L80.769616,26.16 L75.0951586,39.59 L83.2186978,39.59 L88.8931553,26.16 L100.838063,26.16 L106.507513,39.59 L114.631052,39.59 L108.961603,26.16 L124.707846,26.16 L124.707846,39.59 L132.370618,39.59 L132.370618,26.16 L147.936561,26.16 L147.936561,18.725 L105.821369,18.725 L98.5141903,1.425 L90.3906511,1.425 L97.7028381,18.735 L65.8898164,18.735 C66.7481325,16.947532 67.1670671,14.9814784 67.1118531,13 C67.1118531,5.07 62.1836394,1.215 52.0517529,1.215 L37.6577629,1.24 Z M124.682805,1.24 L124.682805,9.165 L150.811352,9.165 L150.811352,1.235 L124.682805,1.24 Z M284.784641,1.24 L275.959933,27.935 L267.140234,1.235 L257.429048,1.235 L252.125209,39.585 L259.833055,39.585 L263.48414,13.785 L271.998331,39.585 L279.896494,39.585 L288.410684,13.785 L292.056761,39.585 L299.754591,39.585 L294.490818,1.235 L284.784641,1.24 Z M207.210351,17.47 L215.529215,17.47 C216.904986,12.1792588 221.688368,8.48525704 227.163606,8.48525704 C232.638844,8.48525704 237.422226,12.1792588 238.797997,17.47 L247.116861,17.47 C245.658899,7.58984777 237.167069,0.269591113 227.163606,0.269591113 C217.160143,0.269591113 208.668313,7.58984777 207.210351,17.47 L207.210351,17.47 Z M299.904841,53.31 L296.629382,61.205 C296.213689,62.15 295.627713,62.615 294.741235,62.615 C294.333033,62.6130403 293.928783,62.5350381 293.549249,62.385 L293.844741,61.545 C294.093842,61.6367088 294.355764,61.6890059 294.621035,61.7 C295.086811,61.7 295.422371,61.495 295.69783,60.86 L296.058431,60.035 L293.45409,53.315 L294.626043,53.31 L295.958264,56.93 L296.654424,58.815 L297.380634,56.93 L298.792988,53.31 L299.904841,53.31 Z M270.105175,52.385 L270.661102,53.175 C270.213341,53.4090242 269.789037,53.6852831 269.39399,54 C269.786775,54.4164774 270.003799,54.9679816 270,55.54 C270,56.925 268.823038,57.905 267.270451,57.905 C266.831292,57.9061333 266.396012,57.8229567 265.988314,57.66 C265.79446,57.8401148 265.670338,58.0826344 265.63773,58.345 C265.63773,58.68 265.752922,58.915 266.804674,58.965 L268.627713,59.055 C269.949917,59.125 270.646077,59.695 270.646077,60.61 C270.646077,61.76 269.584307,62.61 267.035058,62.61 C264.871452,62.61 264.03005,61.99 264.03005,61.11 C264.050872,60.3937859 264.426095,59.7344939 265.03172,59.35 C264.782149,59.1212214 264.640389,58.7982558 264.641068,58.46 C264.685569,57.9721209 264.941784,57.5281457 265.342237,57.245 C264.835221,56.8242609 264.544643,56.198173 264.550918,55.54 C264.550918,54.155 265.72788,53.175 267.280467,53.175 C267.803472,53.168615 268.319839,53.2923365 268.782972,53.535 C269.159377,53.0836488 269.605765,52.6953981 270.105175,52.385 Z M95.8297162,53.17 C97.4974958,53.18 99.0801336,54.265 99.0801336,56.67 C99.0801336,59.075 97.5525876,60.17 95.8547579,60.17 C95.2122652,60.1749992 94.5775603,60.0294316 94.0016694,59.745 L94.0016694,62.5 L92.9398998,62.5 L92.9398998,53.31 L93.9115192,53.31 L93.9115192,53.67 C94.4950883,53.3362106 95.1571837,53.1636278 95.8297162,53.17 Z M265.752922,59.77 C265.364624,59.9949244 265.123131,60.406865 265.116861,60.855 C265.116861,61.4 265.617696,61.71 267.03005,61.71 C268.988314,61.71 269.559265,61.285 269.559265,60.715 C269.559265,60.3 269.27379,60.03 268.342237,59.98 L266.388982,59.875 C266.173747,59.8633844 265.960445,59.8281728 265.752922,59.77 Z M76.0217028,53.86 C76.4608883,54.3485415 76.6799639,54.9956353 76.6277129,55.65 L76.6277129,58 C76.6176139,58.6793706 76.7225981,59.3555594 76.9382304,60 L76.9382304,60.05 L75.9015025,60.05 C75.8462695,59.9156459 75.8027036,59.7768018 75.7712855,59.635 C75.132677,59.9769135 74.4222934,60.1636351 73.6978297,60.18 C72.1552588,60.18 71.278798,59.445 71.278798,58.06 C71.278798,56.795 72.3656093,55.94 74.163606,55.94 C74.6398412,55.9350818 75.1156455,55.9702059 75.5859766,56.045 L75.5859766,55.76 C75.5859766,54.65 74.9649416,54.145 73.9282137,54.145 C73.2445481,54.1478128 72.5666117,54.269638 71.9248748,54.505 L71.5993322,53.69 C72.3660313,53.3697927 73.1873393,53.200033 74.0183639,53.19 C74.7493727,53.1340849 75.4719529,53.3757459 76.0217028,53.86 Z M126.946578,53.86 C127.387075,54.3497732 127.606244,54.998951 127.552588,55.655 L127.552588,58 C127.542489,58.6793706 127.647473,59.3555594 127.863105,60 L127.863105,60.05 L126.826377,60.05 C126.771144,59.9156459 126.727578,59.7768018 126.69616,59.635 C126.057552,59.9769135 125.347168,60.1636351 124.622705,60.18 C123.080134,60.18 122.203673,59.445 122.203673,58.06 C122.203673,56.795 123.290484,55.94 125.088481,55.94 C125.564716,55.9350818 126.04052,55.9702059 126.510851,56.045 L126.510851,55.76 C126.510851,54.65 125.889816,54.145 124.853088,54.145 C124.169432,54.1479149 123.491513,54.2697369 122.84975,54.505 L122.524207,53.69 C123.290906,53.3697927 124.112214,53.200033 124.943239,53.19 C125.674247,53.1340849 126.396828,53.3757459 126.946578,53.86 Z M219.621035,53.86 C220.061533,54.3497732 220.280702,54.998951 220.227045,55.655 L220.227045,58 C220.217042,58.6793639 220.322024,59.3555368 220.537563,60 L220.537563,60.05 L219.500835,60.05 C219.445437,59.9157054 219.401866,59.7768469 219.370618,59.635 C218.73194,59.9767374 218.021599,60.1634478 217.297162,60.18 C215.754591,60.18 214.87813,59.445 214.87813,58.06 C214.87813,56.795 215.964942,55.94 217.762938,55.94 C218.239174,55.9350581 218.71498,55.9701823 219.185309,56.045 L219.185309,55.76 C219.185309,54.65 218.564274,54.145 217.527546,54.145 C216.84388,54.1478128 216.165944,54.269638 215.524207,54.505 L215.198664,53.69 C215.965364,53.3697927 216.786672,53.200033 217.617696,53.19 C218.348705,53.1340849 219.071285,53.3757459 219.621035,53.86 Z M142.21202,50.455 L143.27379,50.465 L143.27379,60.03 L142.30217,60.03 L142.30217,59.67 C141.718601,60.0037894 141.056506,60.1763722 140.383973,60.17 C138.716194,60.17 137.133556,59.085 137.133556,56.67 C137.133556,54.255 138.661102,53.17 140.358932,53.17 C141.001424,53.1650008 141.636129,53.3105684 142.21202,53.595 L142.21202,50.455 Z M190.63773,53.305 L190.63773,57.5 C190.63773,58.665 191.258765,59.26 192.205342,59.26 C192.883565,59.2537132 193.547055,59.0617428 194.123539,58.705 L194.123539,53.31 L195.180301,53.31 L195.180301,60.03 L194.208681,60.03 L194.208681,59.565 C193.517893,59.9543702 192.738194,60.1593028 191.944908,60.16 C191.294639,60.20047 190.656561,59.9706379 190.18197,59.525 C189.718903,58.9903933 189.499373,58.2876204 189.57596,57.585 L189.57596,53.305 L190.63773,53.305 Z M223.692821,51.62 L223.692821,53.31 L225.400668,53.31 L225.400668,54.23 L223.692821,54.23 L223.692821,58.23 C223.692821,58.955 224.003339,59.265 224.559265,59.265 C224.884447,59.2525493 225.20635,59.1953427 225.51586,59.095 L225.701169,59.915 C225.27764,60.0712957 224.830465,60.1541559 224.378965,60.16 C223.907273,60.1870208 223.443649,60.0291489 223.086811,59.72 C222.749301,59.3372975 222.584468,58.8327715 222.631052,58.325 L222.631052,54.23 L221.519199,54.23 L221.519199,53.31 L222.631052,53.31 L222.631052,51.62 L223.692821,51.62 Z M115.527546,51.62 L115.527546,53.31 L117.235392,53.31 L117.235392,54.23 L115.527546,54.23 L115.527546,58.23 C115.527546,58.955 115.838063,59.265 116.39399,59.265 C116.719171,59.2525493 117.041075,59.1953427 117.350584,59.095 L117.530885,59.915 C117.107357,60.0712957 116.660181,60.1541559 116.208681,60.16 C115.73699,60.1870208 115.273365,60.0291489 114.916528,59.72 C114.580821,59.3364943 114.417829,58.8320588 114.465776,58.325 L114.465776,54.23 L113.353923,54.23 L113.353923,53.31 L114.465776,53.31 L114.465776,51.62 L115.527546,51.62 Z M153.440735,50.54 C154.403024,50.5328102 155.354079,50.7466548 156.220367,51.165 L155.859766,52.085 C155.112272,51.7596132 154.306268,51.5894946 153.490818,51.585 C151.587646,51.585 150.045075,52.955 150.045075,55.36 C150.045075,57.765 151.587646,59.135 153.490818,59.135 C154.327883,59.1362638 155.15631,58.9660897 155.924875,58.635 L156.275459,59.54 C155.391147,59.9623178 154.42091,60.1745243 153.440735,60.16 C151.006678,60.16 148.883139,58.34 148.883139,55.35 C148.883139,52.36 151.006678,50.54 153.440735,50.54 Z M88.6978297,53.16 C89.4476149,53.166635 90.1890644,53.3177336 90.8814691,53.605 L90.5859766,54.43 C89.9836684,54.1978446 89.3434695,54.0791729 88.6978297,54.08 C87.8414023,54.08 87.3105175,54.415 87.3105175,54.945 C87.3105175,55.475 87.5709516,55.8 88.7729549,56.11 C90.6360601,56.61 91.312187,57.17 91.312187,58.205 C91.312187,59.395 90.3105175,60.155 88.5676127,60.155 C87.6951428,60.142282 86.829994,59.9938323 86.0033389,59.715 L86.2988314,58.89 C87.0311085,59.1224904 87.7942138,59.2438444 88.5626043,59.25 C89.6894825,59.25 90.2604341,58.89 90.2604341,58.25 C90.2604341,57.75 89.8347245,57.37 88.4373957,57.02 C86.7395659,56.595 86.263773,55.975 86.263773,55.02 C86.263773,53.96 87.1953255,53.16 88.6978297,53.16 Z M290.153589,53.1549678 C290.934626,53.1520746 291.703479,53.3482701 292.387312,53.725 L292.036728,54.525 C291.478167,54.2755888 290.875483,54.139616 290.263773,54.125 C288.851419,54.125 287.844741,55.045 287.844741,56.67 C287.844741,58.295 288.846411,59.215 290.253756,59.215 C290.88367,59.2042283 291.50447,59.0629082 292.076795,58.8 L292.427379,59.6 C291.72524,59.979194 290.936706,60.1704006 290.138564,60.155 C288.285476,60.155 286.772955,58.9 286.772955,56.655 C286.772955,54.41 288.275459,53.1549678 290.153589,53.1549678 Z M248.338898,53.16 C249.088683,53.166635 249.830133,53.3177336 250.522538,53.605 L250.227045,54.43 C249.624737,54.1978446 248.984538,54.0791729 248.338898,54.08 C247.482471,54.08 246.951586,54.415 246.951586,54.945 C246.951586,55.475 247.21202,55.8 248.414023,56.11 C250.277129,56.61 250.953255,57.17 250.953255,58.205 C250.953255,59.395 249.951586,60.155 248.208681,60.155 C247.336211,60.142282 246.471062,59.9938323 245.644407,59.715 L245.9399,58.89 C246.672177,59.1224904 247.435282,59.2438444 248.203673,59.25 C249.330551,59.25 249.901503,58.89 249.901503,58.25 C249.901503,57.75 249.475793,57.37 248.078464,57.02 C246.380634,56.595 245.904841,55.975 245.904841,55.02 C245.904841,53.96 246.836394,53.16 248.338898,53.16 Z M44.2086811,53.16 C44.9584663,53.166635 45.6999158,53.3177336 46.3923205,53.605 L46.096828,54.43 C45.4945198,54.1978446 44.8543209,54.0791729 44.2086811,54.08 C43.3522538,54.08 42.8213689,54.415 42.8213689,54.945 C42.8213689,55.475 43.081803,55.8 44.2838063,56.11 C46.1469115,56.61 46.8230384,57.17 46.8230384,58.205 C46.8230384,59.395 45.8213689,60.155 44.0784641,60.155 C43.2059942,60.142282 42.3408454,59.9938323 41.5141903,59.715 L41.8096828,58.89 C42.5419599,59.1224904 43.3050652,59.2438444 44.0734558,59.25 C45.2003339,59.25 45.7712855,58.89 45.7712855,58.25 C45.7712855,57.75 45.345576,57.37 43.9482471,57.02 C42.2504174,56.595 41.7746244,55.975 41.7746244,55.02 C41.7746244,53.96 42.706177,53.16 44.2086811,53.16 Z M211.512521,53.1549525 C212.295225,53.1514436 213.065853,53.347652 213.751252,53.725 L213.400668,54.525 C212.842107,54.2755888 212.239423,54.139616 211.627713,54.125 C210.215359,54.125 209.208681,55.045 209.208681,56.67 C209.208681,58.295 210.210351,59.215 211.617696,59.215 C212.24761,59.2042283 212.86841,59.0629082 213.440735,58.8 L213.791319,59.6 C213.087613,59.9798202 212.297301,60.1710394 211.497496,60.155 C209.644407,60.155 208.131886,58.9 208.131886,56.655 C208.131886,54.41 209.634391,53.1549525 211.512521,53.1549525 Z M274.647746,53.135 C276.380634,53.135 277.612688,54.4 277.612688,56.38 C277.615453,56.5873912 277.602058,56.7946829 277.572621,57 L272.499165,57 C272.526065,57.6194066 272.802308,58.2017385 273.265268,58.6149785 C273.728228,59.0282185 274.338692,59.2373637 274.958264,59.195 C275.658131,59.1871659 276.350661,59.051602 277.001669,58.795 L277.27212,59.635 C276.509156,59.9670955 275.685414,60.1373583 274.853088,60.1350242 C272.924875,60.1350242 271.422371,58.87 271.422371,56.635 C271.366232,55.7390544 271.678686,54.8590281 272.287492,54.1983851 C272.896298,53.5377422 273.748746,53.1536819 274.647746,53.135 Z M39.9065109,53.31 L39.9065109,60.03 L38.8447412,60.03 L38.8447412,53.31 L39.9065109,53.31 Z M228.240401,53.31 L228.240401,60.03 L227.178631,60.03 L227.178631,53.31 L228.240401,53.31 Z M206.318865,53.31 L206.318865,60.03 L205.257095,60.03 L205.257095,53.31 L206.318865,53.31 Z M186.856427,53.825 C187.288544,54.2951778 187.504562,54.9240279 187.452421,55.56 L187.452421,60.03 L186.390651,60.03 L186.390651,55.65 C186.417891,55.2285031 186.260955,54.815884 185.960356,54.5186626 C185.659757,54.2214413 185.244957,54.0687475 184.823038,54.1 C184.210437,54.1053116 183.609141,54.2652753 183.075125,54.565 L183.075125,60.03 L182.028381,60.03 L182.028381,55.585 C182.028381,54.54 181.497496,54.085 180.565943,54.085 C179.90969,54.1015004 179.269834,54.2931373 178.712855,54.64 L178.712855,60.015 L177.651085,60.015 L177.651085,53.31 L178.622705,53.31 L178.622705,53.81 C179.293471,53.4151329 180.057698,53.20627 180.836394,53.205 C181.503122,53.2029071 182.149025,53.436745 182.659432,53.865 C183.394949,53.4266572 184.23691,53.1983577 185.093489,53.205 C185.740287,53.1697592 186.374562,53.3928244 186.856427,53.825 Z M174.876461,53.825 C175.308577,54.2951778 175.524595,54.9240279 175.472454,55.56 L175.472454,60.03 L174.410684,60.03 L174.410684,55.65 C174.437924,55.2285031 174.280988,54.815884 173.980389,54.5186626 C173.679791,54.2214413 173.26499,54.0687475 172.843072,54.1 C172.230471,54.1053116 171.629175,54.2652753 171.095159,54.565 L171.095159,60.03 L170.048414,60.03 L170.048414,55.585 C170.048414,54.54 169.517529,54.085 168.585977,54.085 C167.929762,54.1017427 167.289969,54.2933609 166.732888,54.64 L166.732888,60.015 L165.671119,60.015 L165.671119,53.31 L166.642738,53.31 L166.642738,53.81 C167.313504,53.4151329 168.077732,53.20627 168.856427,53.205 C169.5248,53.2021568 170.17253,53.4360139 170.684474,53.865 C171.41989,53.4264188 172.261919,53.1981008 173.118531,53.205 C173.763627,53.1711052 174.395846,53.3940809 174.876461,53.825 Z M18.2404007,50.725 L18.2404007,51.695 L13.78798,51.695 L13.78798,54.965 L17.7245409,54.965 L17.7245409,55.935 L13.78798,55.935 L13.78798,60.03 L12.6711185,60.03 L12.6711185,50.725 L18.2404007,50.725 Z M20.9098497,53.31 L20.9098497,60.03 L19.8480801,60.03 L19.8480801,53.31 L20.9098497,53.31 Z M259.702838,50.66 L263.148581,60.03 L261.996661,60.03 L261.260434,57.95 L257.168614,57.95 L256.427379,60.03 L255.300501,60.03 L258.746244,50.66 L259.702838,50.66 Z M66.4507513,50.725 L66.4507513,51.695 L63.3806344,51.695 L63.3806344,60.03 L62.2687813,60.03 L62.2687813,51.695 L59.1986644,51.695 L59.1986644,50.725 L66.4507513,50.725 Z M134.799666,53.825 C135.256927,54.3566938 135.474349,55.0530933 135.400668,55.75 L135.400668,60.025 L134.338898,60.025 L134.338898,55.85 C134.338898,54.685 133.717863,54.12 132.771285,54.12 C132.077533,54.127689 131.398278,54.3192201 130.803005,54.675 L130.803005,60.025 L129.741235,60.025 L129.741235,53.31 L130.717863,53.31 L130.717863,53.81 C131.424341,53.407183 132.223155,53.1936023 133.036728,53.19 C133.686997,53.14953 134.325075,53.3793621 134.799666,53.825 Z M49.5225376,50.465 L49.5225376,53.745 C50.20894,53.3794057 50.9733225,53.1839127 51.7512521,53.175 C52.4015212,53.13453 53.0395995,53.3643621 53.5141903,53.81 C53.9772575,54.3446067 54.1967871,55.0473796 54.1202003,55.75 L54.1202003,60.025 L53.0584307,60.025 L53.0584307,55.85 C53.0584307,54.685 52.4373957,54.12 51.490818,54.12 C50.7971002,54.1279279 50.1179058,54.3194417 49.5225376,54.675 L49.5225376,60.025 L48.4607679,60.025 L48.4607679,50.465 L49.5225376,50.465 Z M28.1919866,53.825 C28.649248,54.3566938 28.8666699,55.0530933 28.7929883,55.75 L28.7929883,60.025 L27.7312187,60.025 L27.7312187,55.85 C27.7312187,54.685 27.1101836,54.12 26.163606,54.12 C25.4698536,54.127689 24.790598,54.3192201 24.1953255,54.675 L24.1953255,60.025 L23.1385643,60.025 L23.1385643,53.31 L24.1101836,53.31 L24.1101836,53.81 C24.8166611,53.407183 25.6154754,53.1936023 26.4290484,53.19 C27.0793175,53.14953 27.7173959,53.3793621 28.1919866,53.825 Z M202.442404,53.825 C202.903797,54.3547939 203.124973,55.0516067 203.053422,55.75 L203.053422,60.025 L201.991653,60.025 L201.991653,55.85 C201.991653,54.685 201.370618,54.12 200.42404,54.12 C199.730322,54.1279279 199.051128,54.3194417 198.45576,54.675 L198.45576,60.025 L197.39399,60.025 L197.39399,53.31 L198.365609,53.31 L198.365609,53.81 C199.072087,53.407183 199.870901,53.1936023 200.684474,53.19 C201.333042,53.1509337 201.969033,53.3806664 202.442404,53.825 Z M243.520868,53.825 C243.979928,54.3558941 244.19919,55.0523819 244.126878,55.75 L244.126878,60.025 L243.065109,60.025 L243.065109,55.85 C243.065109,54.685 242.444073,54.12 241.497496,54.12 C240.803743,54.127689 240.124488,54.3192201 239.529215,54.675 L239.529215,60.025 L238.467446,60.025 L238.467446,53.31 L239.439065,53.31 L239.439065,53.81 C240.145543,53.407183 240.944357,53.1936023 241.75793,53.19 C242.408199,53.14953 243.046277,53.3793621 243.520868,53.825 Z M36.0250417,53.825 C36.4823031,54.3566938 36.699725,55.0530933 36.6260434,55.75 L36.6260434,60.025 L35.5592654,60.025 L35.5592654,55.85 C35.5592654,54.685 34.9382304,54.12 33.9916528,54.12 C33.2979004,54.127689 32.6186448,54.3192201 32.0233723,54.675 L32.0233723,60.025 L30.9716194,60.025 L30.9716194,53.31 L31.9432387,53.31 L31.9432387,53.81 C32.6497162,53.407183 33.4485305,53.1936023 34.2621035,53.19 C34.9123726,53.14953 35.550451,53.3793621 36.0250417,53.825 Z M83.8797997,53.825 C84.3388595,54.3558941 84.5581211,55.0523819 84.4858097,55.75 L84.4858097,60.025 L83.4240401,60.025 L83.4240401,55.85 C83.4240401,54.685 82.803005,54.12 81.8564274,54.12 C81.162675,54.127689 80.4834194,54.3192201 79.8881469,54.675 L79.8881469,60.025 L78.8263773,60.025 L78.8263773,53.31 L79.7979967,53.31 L79.7979967,53.81 C80.5044741,53.407183 81.3032884,53.1936023 82.1168614,53.19 C82.7671305,53.14953 83.4052089,53.3793621 83.8797997,53.825 Z M284.42404,53.825 C284.8831,54.3558941 285.102362,55.0523819 285.03005,55.75 L285.03005,60.025 L283.973289,60.025 L283.973289,55.85 C283.973289,54.685 283.352254,54.12 282.405676,54.12 C281.711924,54.127689 281.032668,54.3192201 280.437396,54.675 L280.437396,60.025 L279.375626,60.025 L279.375626,53.31 L280.347245,53.31 L280.347245,53.81 C281.053723,53.407183 281.852537,53.1936023 282.66611,53.19 C283.314678,53.1509337 283.950669,53.3806664 284.42404,53.825 Z M112.30217,53.18 L112.482471,54.125 C111.591832,54.2682259 110.732743,54.5642615 109.943239,55 L109.943239,60 L108.881469,60 L108.881469,53.31 L109.853088,53.31 L109.853088,54.1 C110.602386,53.6385361 111.434022,53.326131 112.30217,53.18 Z M70.2570952,53.18 L70.4373957,54.125 C69.546757,54.2682259 68.6876678,54.5642615 67.8981636,55 L67.8981636,60 L66.836394,60 L66.836394,53.31 L67.8080134,53.31 L67.8080134,54.1 C68.5573104,53.6385361 69.3889472,53.326131 70.2570952,53.18 Z M160.557596,53.1699638 C161.472656,53.1657332 162.348796,53.5392149 162.978551,54.2020071 C163.608307,54.8647992 163.935675,55.7579619 163.883139,56.67 C163.787524,58.4811339 162.255735,59.8816712 160.440182,59.8179469 C158.624628,59.7542227 157.195143,58.2497475 157.22717,56.4363817 C157.259198,54.6230159 158.740921,53.1697864 160.557596,53.1699638 Z M233.353923,53.1699347 C234.269447,53.1642583 235.146475,53.5372849 235.776555,54.200419 C236.406636,54.8635531 236.733502,55.7575771 236.679466,56.67 C236.583851,58.4811339 235.052063,59.8816712 233.236509,59.8179469 C231.420955,59.7542227 229.991471,58.2497475 230.023498,56.4363817 C230.055525,54.6230159 231.537248,53.1697864 233.353923,53.1699347 Z M103.767947,53.1699638 C104.683007,53.1657332 105.559146,53.5392149 106.188902,54.2020071 C106.818657,54.8647992 107.146026,55.7579619 107.093489,56.67 C106.997875,58.4811339 105.466086,59.8816712 103.650532,59.8179469 C101.834979,59.7542227 100.405494,58.2497475 100.437521,56.4363817 C100.469548,54.6230159 101.951271,53.1697864 103.767947,53.1699638 Z M125.123539,56.77 C123.891486,56.77 123.300501,57.27 123.300501,58.06 C123.300501,58.85 123.796327,59.23 124.75793,59.23 L124.75793,59.25 C125.371668,59.2554445 125.977251,59.1094538 126.520868,58.825 L126.520868,56.885 C126.060528,56.7970629 125.59209,56.7585105 125.123539,56.77 Z M74.1986644,56.77 C72.966611,56.77 72.375626,57.27 72.375626,58.06 C72.375626,58.85 72.8714524,59.23 73.8280467,59.23 L73.8330551,59.25 C74.4467933,59.2554445 75.0523758,59.1094538 75.5959933,58.825 L75.5959933,56.885 C75.135653,56.7970629 74.6672149,56.7585105 74.1986644,56.77 Z M217.792988,56.77 C216.560935,56.77 215.96995,57.27 215.96995,58.06 C215.96995,58.85 216.470785,59.23 217.427379,59.23 L217.432387,59.25 C218.044434,59.2546208 218.648197,59.108654 219.190317,58.825 L219.190317,56.885 C218.729977,56.7970629 218.261539,56.7585105 217.792988,56.77 Z M95.6744574,54.125 C95.0830199,54.1088859 94.4992483,54.2615236 93.9916528,54.565 L93.9916528,58.815 C94.5204662,59.0834082 95.1062912,59.2206161 95.6994992,59.215 C96.9415693,59.215 97.9883139,58.465 97.9883139,56.67 L97.9933222,56.67 C97.9933222,54.875 96.8914858,54.125 95.6744574,54.125 Z M160.557596,54.125 C159.265442,54.125 158.318865,55.08 158.318865,56.67 C158.318865,58.26 159.265442,59.215 160.557596,59.215 C161.84975,59.215 162.796327,58.26 162.796327,56.67 C162.796327,55.08 161.84975,54.125 160.557596,54.125 Z M140.519199,54.1 C139.277129,54.1 138.225376,54.85 138.225376,56.645 C138.225376,58.44 139.322204,59.215 140.539232,59.215 L140.54424,59.215 C141.135678,59.2311141 141.71945,59.0784764 142.227045,58.775 L142.227045,54.5 C141.698028,54.2321474 141.112341,54.0949718 140.519199,54.1 Z M233.353923,54.125 C232.06177,54.125 231.115192,55.08 231.115192,56.67 C231.115192,58.26 232.06177,59.215 233.353923,59.215 C234.646077,59.215 235.592654,58.26 235.592654,56.67 C235.592654,55.08 234.646077,54.125 233.353923,54.125 Z M103.767947,54.125 C102.475793,54.125 101.529215,55.08 101.529215,56.67 C101.529215,58.26 102.475793,59.215 103.767947,59.215 C105.0601,59.215 106.006678,58.26 106.006678,56.67 C106.006678,55.08 105.0601,54.125 103.767947,54.125 Z M267.275459,54.045 C266.253756,54.045 265.547579,54.615 265.547579,55.545 L265.552588,55.545 C265.552588,56.475 266.253756,57.045 267.275459,57.045 C268.297162,57.045 268.998331,56.49 268.998331,55.545 C268.998331,54.6 268.297162,54.045 267.275459,54.045 Z M259.222037,52.085 L258.490818,54.255 L257.489149,57.035 L260.934891,57.035 L259.933222,54.255 L259.222037,52.085 Z M272.516384,56.1196515 L272.509182,56.12 L272.51419,56.14 L272.516384,56.1196515 Z M274.63773,54.09 C273.652838,54.09 272.785467,54.7172375 272.546607,55.9417044 L272.516384,56.1196515 L276.51586,56.12 C276.475793,54.815 275.674457,54.09 274.63773,54.09 Z M20.9098497,50.725 L20.9098497,51.785 L19.8480801,51.785 L19.8480801,50.725 L20.9098497,50.725 Z M39.9065109,50.725 L39.9065109,51.785 L38.8447412,51.785 L38.8447412,50.725 L39.9065109,50.725 Z M206.318865,50.725 L206.318865,51.785 L205.257095,51.785 L205.257095,50.725 L206.318865,50.725 Z M228.240401,50.725 L228.240401,51.785 L227.178631,51.785 L227.178631,50.725 L228.240401,50.725 Z M203.664362,1.55661969 L204.055092,1.715 L199.90818,8.885 C194.96429,7.3035484 189.562058,9.06953848 186.512626,13.2640072 C183.463194,17.4584759 183.455736,23.1334723 186.494132,27.3359153 C189.47052,31.4525941 194.710774,33.2448271 199.574652,31.8418541 L199.87813,31.75 L204.025042,38.92 C197.79235,41.5130794 190.673887,40.8246198 185.05567,37.085384 C179.437453,33.3461482 176.06302,27.0510031 176.063439,20.31 C176.066364,13.5646634 179.447405,7.26750755 185.072484,3.53073838 C190.580374,-0.12818144 197.525436,-0.857747223 203.664362,1.55661969 Z" id="traficom_logo_eng"></path>
            </g>
        </g>
    </g>
</svg>