<?xml version="1.0" encoding="UTF-8"?> <svg xmlns="http://www.w3.org/2000/svg" id="Layer_1" data-name="Layer 1" viewBox="0 0 668.62 156.8"><defs><style>.cls-1{fill:#767283;}</style></defs><path class="cls-1" d="M232.3,52.8h27.5V65.9h.3c3.5-10.9,15.9-15.2,27-15.2V79.1a32.32,32.32,0,0,0-11.4-2.4c-9.3,0-12.3,2.4-15.4,6.8v56.3H232.2v-87Z" transform="translate(-0.18 -0.1)"></path><path class="cls-1" d="M294.5,52.8h28.1v86.9H294.5Z" transform="translate(-0.18 -0.1)"></path><path class="cls-1" d="M332.1,52.8h28.1V64.4h.3c5.9-8.8,14.7-13.7,24.8-13.7,8.5,0,17,5.4,17.5,13.7h.3c5.9-8.8,14.7-13.7,24.8-13.7,11.2,0,19.6,6.1,19.6,18.5v70.5h-28V78.2c0-4.7-1.6-7.8-6.7-7.8a8.86,8.86,0,0,0-7.3,3.6l-1.6,2.1v63.5h-28V78.2c0-4.7-1.6-7.8-6.7-7.8a9,9,0,0,0-7.3,3.6l-1.5,2.1v63.5H332.3V52.8Z" transform="translate(-0.18 -0.1)"></path><path class="cls-1" d="M456.8,16.4h28.1V57.8h.4c4-4.2,11.2-7.1,16.9-7.1,19.4,0,29.8,19.4,29.8,44.5,0,19.9-8.3,45.5-31.8,45.5-10.9,0-18-5.2-23.6-13.5l-5.2,12.5H456.9V16.4Zm28.1,95.4c-.5,7.3,3.8,11.3,9.2,11.3,7.8,0,8.8-7.8,8.8-23.9V92.6c0-17.3,0-26.3-8.6-26.3-3.5,0-6.1,2.1-7.8,3.5l-1.6,1.5Z" transform="translate(-0.18 -0.1)"></path><path class="cls-1" d="M539.3,16.4h28.1V139.7H539.3Z" transform="translate(-0.18 -0.1)"></path><path class="cls-1" d="M602.7,99.8c0,7.6,1.5,20.6,12.6,20.6,6.8,0,12.4-4.8,14.2-12l18.9,6.9c-1.2,4-9.9,23.7-34.8,23.7-26.8,0-39-21.6-39-45.7,0-24.6,12.8-45.4,38.6-45.4,27,0,36.4,23.2,36.4,45.9v5.9H602.7Zm20.9-16.6c-.2-8.1-.9-17.5-10.6-17.5-8,0-10.4,9.4-10.4,17.5Z" transform="translate(-0.18 -0.1)"></path><rect class="cls-1" x="294.32" y="15.8" width="28.1" height="25"></rect><path class="cls-1" d="M157.6,15.9h86.9V39.8H216.6v99.4H185.4V39.8H157.5V15.9Z" transform="translate(-0.18 -0.1)"></path><path class="cls-1" d="M101.2,108.8a21.15,21.15,0,0,1-1.7,5.2,3.29,3.29,0,0,0-.4,1.7,22,22,0,0,1-2.3,2.1,53,53,0,0,1-36.2,13.1l-12,6.5a61.52,61.52,0,0,0,67.8-31.9,62.39,62.39,0,0,0,2.8-6.3Z" transform="translate(-0.18 -0.1)"></path><path class="cls-1" d="M59,24h3.7a28,28,0,0,0-4.1,1.3L69.4,31A30.51,30.51,0,0,1,92,40.5c-1.3.1-2.7.3-4,.5l18.2,9.8c0-.2-.1-.4-.1-.6a10,10,0,0,1,1.9,1.6l12.1,6.5c-.1-.5-.3-.9-.4-1.4a3,3,0,0,0-.4-.8,5.64,5.64,0,0,0-.4-1.2c-3.5-9.9-10.2-18.6-18.6-25.3a6.47,6.47,0,0,0-.8-.9A60.19,60.19,0,0,0,66.8,15.9a3.08,3.08,0,0,1-1-.1,60.21,60.21,0,0,0-12,.3c-.2,0-.5.1-.7.1a35.3,35.3,0,0,0-4.4.8,28.06,28.06,0,0,0-3.1.8l11.2,6.1A8.13,8.13,0,0,0,59,24Z" transform="translate(-0.18 -0.1)"></path><path class="cls-1" d="M12,97.3A55.4,55.4,0,0,1,8.8,85.6a53.77,53.77,0,0,1-.6-9.8,52.91,52.91,0,0,1,.4-5.4,50.93,50.93,0,0,1,3.8-13.8V40.7A70.4,70.4,0,0,0,7,49.3,62.55,62.55,0,0,0,.7,69.2,39.64,39.64,0,0,0,.2,76,76.49,76.49,0,0,0,.9,86.6,61.68,61.68,0,0,0,5.3,102a58.36,58.36,0,0,0,5.6,10l.6.9a7.63,7.63,0,0,1,.8,1.1V96.3C12.2,96.6,12.1,97,12,97.3Z" transform="translate(-0.18 -0.1)"></path><path class="cls-1" d="M103.2,68.5a31.78,31.78,0,0,1-2.6,3.5,78.17,78.17,0,0,1,6.8,16.4,22,22,0,0,0,1.7-2.5c4.8-7.9,5.7-17.6,2.4-27.4a3.13,3.13,0,0,1-.5-1c-.3-.8-.7-1.6-1-2.4a3,3,0,0,1-.9-1.3,7.61,7.61,0,0,0-1.2-1.9l-1.8-1A24.39,24.39,0,0,1,103.2,68.5Z" transform="translate(-0.18 -0.1)"></path><path class="cls-1" d="M55,24.3h-.6a44.43,44.43,0,0,0-7.6,1.8A50.3,50.3,0,0,1,53.1,28a31.86,31.86,0,0,1,5.5-2.9L56.7,24A8.58,8.58,0,0,1,55,24.3Z" transform="translate(-0.18 -0.1)"></path><path class="cls-1" d="M119,99.1l38.1-20.6-37-20.1A61.41,61.41,0,0,1,119,99.1Z" transform="translate(-0.18 -0.1)"></path><path class="cls-1" d="M66.6,31.2h0a31.29,31.29,0,0,0-4.4,1A90.09,90.09,0,0,1,77.7,43.4,74.31,74.31,0,0,1,87.9,41L69.4,31C68.5,31.1,67.5,31.1,66.6,31.2Z" transform="translate(-0.18 -0.1)"></path><path class="cls-1" d="M84.6,109.3c-21.1,2.9-43.5-7-56.6-23.4-4.9,5.9-8.3,11.8-9.5,17.1a13.18,13.18,0,0,0-.3,5.5c.9,1.2,1.8,2.4,2.9,3.7a53.36,53.36,0,0,0,25.6,16.5,55.82,55.82,0,0,0,13.8,2.1l40.7-22a27.56,27.56,0,0,0,.5-5.1A49.21,49.21,0,0,1,84.6,109.3Z" transform="translate(-0.18 -0.1)"></path><path class="cls-1" d="M29.1,73A127.9,127.9,0,0,1,45.4,59.6c-.4-.9-.8-1.7-1.1-2.6h0a24.71,24.71,0,0,1,1.9-21.6,7.63,7.63,0,0,1,.8-1.1,29,29,0,0,0-12.1-1.2,28.64,28.64,0,0,0-5.7,6.8,30.46,30.46,0,0,0-4.4,15.9,37.14,37.14,0,0,0,2.1,12.1A39.16,39.16,0,0,0,29.1,73Z" transform="translate(-0.18 -0.1)"></path><path class="cls-1" d="M51.9,54.3a3.55,3.55,0,0,0,.4.9,117.79,117.79,0,0,1,17-8.6,79.92,79.92,0,0,0-14.5-9.3,18.39,18.39,0,0,0-1.7,2.2C50.4,43.8,50,49,51.9,54.3Z" transform="translate(-0.18 -0.1)"></path><path class="cls-1" d="M82.8,72.6a22.2,22.2,0,0,0,7.4-2.4A103.42,103.42,0,0,0,75.8,52.5c-.9.3-1.9.7-2.9,1.1A117.48,117.48,0,0,0,56.3,62C62.6,69.5,73,74,82.8,72.6Z" transform="translate(-0.18 -0.1)"></path><path class="cls-1" d="M30.2,24.6a63.91,63.91,0,0,1,15.4-6.5L12.4.1V40.6A61.25,61.25,0,0,1,30.2,24.6Z" transform="translate(-0.18 -0.1)"></path><path class="cls-1" d="M96.4,64.4c2.6-4.3,3-9.5,1.2-14.8h0a11.22,11.22,0,0,1-.5-1.3A46.67,46.67,0,0,0,84.5,50,107.83,107.83,0,0,1,96.3,64.8C96.3,64.6,96.3,64.5,96.4,64.4Z" transform="translate(-0.18 -0.1)"></path><path class="cls-1" d="M83.5,101.5a37.47,37.47,0,0,0,17.2-6.7,68.79,68.79,0,0,0-6.6-17.7,28.45,28.45,0,0,1-10.3,3.4C71,82.3,57.5,76.3,49.6,66.4A123.61,123.61,0,0,0,33.3,80C44.6,94.9,64.6,104.1,83.5,101.5Z" transform="translate(-0.18 -0.1)"></path><path class="cls-1" d="M23.4,79.1a46.48,46.48,0,0,1-3.9-8.5h0A42.13,42.13,0,0,1,18,46.4a50.81,50.81,0,0,0-3.9,6.5h0c-.7,1.3-1.2,2.6-1.7,3.7V96.3C14.6,90.7,18.4,84.9,23.4,79.1Z" transform="translate(-0.18 -0.1)"></path><path class="cls-1" d="M111.9,95.4c-.8.9-1.7,1.8-2.6,2.7.1,1,.2,2,.2,2.9A47.16,47.16,0,0,0,111.9,95.4Z" transform="translate(-0.18 -0.1)"></path><path class="cls-1" d="M15,117.3a37.46,37.46,0,0,1-2.6-3.3v42.9l36.1-19.6c-1.3-.3-2.7-.6-4-1A61.62,61.62,0,0,1,15,117.3Z" transform="translate(-0.18 -0.1)"></path><path class="cls-1" d="M122.6,131a9.7,9.7,0,1,1,9.7,9.5A9.58,9.58,0,0,1,122.6,131Zm1.8,0a7.75,7.75,0,0,0,7.9,7.7,7.6,7.6,0,1,0,0-15.2A7.59,7.59,0,0,0,124.4,131Zm12.7,5.3h-1.9l-3.1-4.9h-1.9v4.9h-1.6V125.7h4.7a5.75,5.75,0,0,1,2.6.5,2.68,2.68,0,0,1,1.2,2.3c0,2.1-1.5,2.9-3.4,2.9Zm-5.1-6.2c1.5,0,3.6.3,3.6-1.6,0-1.4-1.2-1.6-2.6-1.6h-2.8v3.2Z" transform="translate(-0.18 -0.1)"></path><path class="cls-1" d="M649.4,131a9.7,9.7,0,1,1,9.7,9.5A9.58,9.58,0,0,1,649.4,131Zm1.8,0a7.75,7.75,0,0,0,7.9,7.7,7.6,7.6,0,1,0,0-15.2A7.59,7.59,0,0,0,651.2,131Zm12.8,5.3h-1.9l-3.1-4.9h-1.9v4.9h-1.6V125.7h4.7a5.75,5.75,0,0,1,2.6.5,2.68,2.68,0,0,1,1.2,2.3c0,2.1-1.5,2.9-3.4,2.9Zm-5.1-6.2c1.5,0,3.6.3,3.6-1.6,0-1.4-1.2-1.6-2.6-1.6h-2.8v3.2Z" transform="translate(-0.18 -0.1)"></path></svg> 